# xmcd
#
# Track frame offsets: 
#        150
#        21345
#        39992
#        55759
#        76227
#        99402
#        120582
#        135462
#        160113
#
# Disc length: 2581 seconds
#
# Revision: 0
# Processed by: cddbd v1.5.2PL0 Copyright (c) Steve Scherf et al.
# Submitted via: ExactAudioCopyFreeDBPlugin 1.0
#
DISCID=630a1309
DTITLE=Mirko Grego and His Dangerous Express - Mirko Grego and His Dan
DTITLE=gerous Express
DYEAR=1997
DGENRE=Blues
TTITLE0=Let The Good Times Roll
TTITLE1=Looking Back
TTITLE2=Baby What Do You Want To Me Do?
TTITLE3=When You're Dead
TTITLE4=Pay For Freedom
TTITLE5=Hideaway
TTITLE6=C'mon Little Shygirl
TTITLE7=Litte smilin' dolly
TTITLE8=Searching Blues
EXTD=
EXTT0=
EXTT1=
EXTT2=
EXTT3=
EXTT4=
EXTT5=
EXTT6=
EXTT7=
EXTT8=
PLAYORDER=
